# xmcd CD database file
# Copyright (C) 1993-1998 Ti Kan
#
# Track frame offsets:
# 150
# 19412
# 38290
# 56525
# 71972
#
# Disc length: 1111 seconds
#
# Revision: 0
# Processed by: cddbd v1.4b41PL1 Copyright (c) Steve Scherf et al.
# Submitted via: inCDius 1.1b8
#
DISCID=3d045505
DTITLE=Kevin Hood - Just A Whisper Away (maxi-single)
DYEAR=1900
DGENRE=
TTITLE0=Just A Whisper Away
TTITLE1=Elijah
TTITLE2=Your Love To Them
TTITLE3=Passive Believer
TTITLE4=I'm Saved!
EXTD=
EXTT0=
EXTT1=
EXTT2=
EXTT3=
EXTT4=
PLAYORDER=
